<svg width="252" height="512" viewBox="0 0 252 512" fill="none" xmlns="http://www.w3.org/2000/svg">
<g filter="url(#filter0_dii_1585_4384)">
<path d="M11.8994 122.687C11.8994 113.295 11.8994 108.599 12.4185 104.657C16.0026 77.4324 37.4256 56.0095 64.6501 52.4253C68.5926 51.9062 73.2886 51.9062 82.6807 51.9062C92.0727 51.9062 96.7688 51.9062 100.711 52.4253C127.936 56.0095 149.359 77.4324 152.943 104.657C153.462 108.599 153.462 113.295 153.462 122.688V412.554C153.462 431.62 153.462 441.154 147.539 447.077C141.615 453 132.082 453 113.015 453H52.3458C33.2792 453 23.7459 453 17.8227 447.077C11.8994 441.154 11.8994 431.62 11.8994 412.554V122.687Z" fill="#F5F5F5"/>
</g>
<g filter="url(#filter1_diiiiiiii_1585_4384)">
<path d="M40.8857 9.4375C40.8857 4.98862 40.8857 2.76418 42.2678 1.38209C43.6499 0 45.8744 0 50.3232 0H115.038C119.486 0 121.711 0 123.093 1.38209C124.475 2.76418 124.475 4.98862 124.475 9.4375V45.7435C124.475 50.8064 124.475 53.3379 122.848 54.749C121.221 56.1601 118.715 55.8021 113.703 55.0861L103.905 53.6864C103.573 53.639 103.407 53.6153 103.24 53.6034C103.073 53.5915 102.905 53.5915 102.57 53.5915H82.0063H62.1385C61.7924 53.5915 61.6194 53.5915 61.4469 53.6042C61.2745 53.6168 61.1033 53.6421 60.761 53.6926L51.7008 55.0293C46.671 55.7714 44.1561 56.1425 42.5209 54.7308C40.8857 53.3192 40.8857 50.7771 40.8857 45.6929V9.4375Z" fill="#D2D2D2"/>
</g>
<g filter="url(#filter2_f_1585_4384)">
<path d="M71.8981 70.6119L68.0675 71.7024C66.3421 72.1936 65.4795 72.4392 64.7252 72.8604C63.9256 73.307 63.2156 73.8978 62.6312 74.603C62.08 75.2682 61.6818 76.0719 60.8853 77.6793C58.7672 81.954 57.7081 84.0914 57.7909 85.9966C57.8781 88.0039 58.7761 89.8899 60.2794 91.223C61.7063 92.4882 64.0543 93.0182 68.7504 94.0781C71.3078 94.6553 72.5866 94.9439 73.7882 94.8222C75.0069 94.6988 76.176 94.2754 77.1911 93.5899C78.192 92.9139 78.9827 91.8822 80.5641 89.8187L82.892 86.7811C84.7411 84.3683 85.6656 83.1619 86.0587 81.9815C86.8939 79.4732 86.3305 76.7098 84.5799 74.7287C83.756 73.7964 82.433 73.0483 79.7869 71.5521L79.7868 71.5521C78.7554 70.9689 78.2397 70.6773 77.7045 70.4755C76.5796 70.0512 75.3684 69.9068 74.1752 70.0548C73.6076 70.1252 73.0378 70.2874 71.8981 70.6119Z" fill="#FFF5F5"/>
<path d="M71.8981 70.6119L68.0675 71.7024C66.3421 72.1936 65.4795 72.4392 64.7252 72.8604C63.9256 73.307 63.2156 73.8978 62.6312 74.603C62.08 75.2682 61.6818 76.0719 60.8853 77.6793C58.7672 81.954 57.7081 84.0914 57.7909 85.9966C57.8781 88.0039 58.7761 89.8899 60.2794 91.223C61.7063 92.4882 64.0543 93.0182 68.7504 94.0781C71.3078 94.6553 72.5866 94.9439 73.7882 94.8222C75.0069 94.6988 76.176 94.2754 77.1911 93.5899C78.192 92.9139 78.9827 91.8822 80.5641 89.8187L82.892 86.7811C84.7411 84.3683 85.6656 83.1619 86.0587 81.9815C86.8939 79.4732 86.3305 76.7098 84.5799 74.7287C83.756 73.7964 82.433 73.0483 79.7869 71.5521L79.7868 71.5521C78.7554 70.9689 78.2397 70.6773 77.7045 70.4755C76.5796 70.0512 75.3684 69.9068 74.1752 70.0548C73.6076 70.1252 73.0378 70.2874 71.8981 70.6119Z" stroke="#FFF6F6" stroke-width="0.674107"/>
</g>
<g filter="url(#filter3_f_1585_4384)">
<path d="M49.5492 63.782L46.6613 69.0729C45.0004 72.1159 46.0441 75.9276 49.0236 77.6999C51.8453 79.3784 55.4778 78.6675 57.4585 76.0491L60.889 71.5143C62.7743 69.0222 62.7736 65.5807 60.8872 63.0894L60.7794 62.947C59.1846 60.8407 56.5014 59.8673 53.9271 60.4612C52.0604 60.8918 50.467 62.1005 49.5492 63.782Z" fill="#FFF9F9"/>
<path d="M49.5492 63.782L46.6613 69.0729C45.0004 72.1159 46.0441 75.9276 49.0236 77.6999C51.8453 79.3784 55.4778 78.6675 57.4585 76.0491L60.889 71.5143C62.7743 69.0222 62.7736 65.5807 60.8872 63.0894L60.7794 62.947C59.1846 60.8407 56.5014 59.8673 53.9271 60.4612C52.0604 60.8918 50.467 62.1005 49.5492 63.782Z" stroke="#EEE8E8" stroke-width="0.674107"/>
</g>
<g filter="url(#filter4_f_1585_4384)">
<path d="M28.6381 90.7158L27.8431 91.8643C27.133 92.8903 26.7779 93.4032 26.5496 93.8533C24.8427 97.2173 25.9334 101.327 29.0839 103.401C29.5054 103.679 30.0681 103.948 31.1935 104.487C31.9039 104.827 32.2592 104.997 32.596 105.12C35.0583 106.018 37.812 105.55 39.8389 103.888C40.1161 103.661 40.3952 103.383 40.9532 102.827L40.9533 102.827L43.6844 100.107L43.6845 100.107C44.1167 99.6765 44.3328 99.4613 44.5017 99.268C46.9746 96.4384 46.9397 92.2063 44.4206 89.4177C44.2485 89.2273 44.0289 89.0156 43.5897 88.5924L43.5896 88.5923L43.5895 88.5922C43.3743 88.3847 43.2666 88.281 43.1601 88.186C41.6484 86.8375 39.6508 86.1662 37.6315 86.328C37.4892 86.3394 37.3407 86.3571 37.0438 86.3925L37.0438 86.3925L35.5173 86.5742C34.4837 86.6972 33.9669 86.7588 33.4833 86.8838C32.0909 87.2438 30.8332 88.001 29.8635 89.0631C29.5267 89.432 29.2305 89.8599 28.6381 90.7158L28.6381 90.7158Z" fill="white"/>
<path d="M28.6381 90.7158L27.8431 91.8643C27.133 92.8903 26.7779 93.4032 26.5496 93.8533C24.8427 97.2173 25.9334 101.327 29.0839 103.401C29.5054 103.679 30.0681 103.948 31.1935 104.487C31.9039 104.827 32.2592 104.997 32.596 105.12C35.0583 106.018 37.812 105.55 39.8389 103.888C40.1161 103.661 40.3952 103.383 40.9532 102.827L40.9533 102.827L43.6844 100.107L43.6845 100.107C44.1167 99.6765 44.3328 99.4613 44.5017 99.268C46.9746 96.4384 46.9397 92.2063 44.4206 89.4177C44.2485 89.2273 44.0289 89.0156 43.5897 88.5924L43.5896 88.5923L43.5895 88.5922C43.3743 88.3847 43.2666 88.281 43.1601 88.186C41.6484 86.8375 39.6508 86.1662 37.6315 86.328C37.4892 86.3394 37.3407 86.3571 37.0438 86.3925L37.0438 86.3925L35.5173 86.5742C34.4837 86.6972 33.9669 86.7588 33.4833 86.8838C32.0909 87.2438 30.8332 88.001 29.8635 89.0631C29.5267 89.432 29.2305 89.8599 28.6381 90.7158L28.6381 90.7158Z" stroke="#F7F7F7" stroke-width="0.674107"/>
</g>
<defs>
<filter id="filter0_dii_1585_4384" x="0.918964" y="1.34822" width="250.768" height="510.299" filterUnits="userSpaceOnUse" color-interpolation-filters="sRGB">
<feFlood flood-opacity="0" result="BackgroundImageFix"/>
<feColorMatrix in="SourceAlpha" type="matrix" values="0 0 0 0 0 0 0 0 0 0 0 0 0 0 0 0 0 0 127 0" result="hardAlpha"/>
<feOffset dx="43.6222" dy="4.04464"/>
<feGaussianBlur stdDeviation="27.3013"/>
<feComposite in2="hardAlpha" operator="out"/>
<feColorMatrix type="matrix" values="0 0 0 0 0 0 0 0 0 0 0 0 0 0 0 0 0 0 0.05 0"/>
<feBlend mode="normal" in2="BackgroundImageFix" result="effect1_dropShadow_1585_4384"/>
<feBlend mode="normal" in="SourceGraphic" in2="effect1_dropShadow_1585_4384" result="shape"/>
<feColorMatrix in="SourceAlpha" type="matrix" values="0 0 0 0 0 0 0 0 0 0 0 0 0 0 0 0 0 0 127 0" result="hardAlpha"/>
<feMorphology radius="0.674107" operator="dilate" in="SourceAlpha" result="effect2_innerShadow_1585_4384"/>
<feOffset dx="0.838889" dy="2.69643"/>
<feGaussianBlur stdDeviation="3.03348"/>
<feComposite in2="hardAlpha" operator="arithmetic" k2="-1" k3="1"/>
<feColorMatrix type="matrix" values="0 0 0 0 0.764706 0 0 0 0 0.764706 0 0 0 0 0.764706 0 0 0 1 0"/>
<feBlend mode="normal" in2="shape" result="effect2_innerShadow_1585_4384"/>
<feColorMatrix in="SourceAlpha" type="matrix" values="0 0 0 0 0 0 0 0 0 0 0 0 0 0 0 0 0 0 127 0" result="hardAlpha"/>
<feMorphology radius="0.674107" operator="erode" in="SourceAlpha" result="effect3_innerShadow_1585_4384"/>
<feOffset dx="-0.838889"/>
<feGaussianBlur stdDeviation="2.02232"/>
<feComposite in2="hardAlpha" operator="arithmetic" k2="-1" k3="1"/>
<feColorMatrix type="matrix" values="0 0 0 0 0.764706 0 0 0 0 0.764706 0 0 0 0 0.764706 0 0 0 1 0"/>
<feBlend mode="normal" in2="effect2_innerShadow_1585_4384" result="effect3_innerShadow_1585_4384"/>
</filter>
<filter id="filter1_diiiiiiii_1585_4384" x="34.1447" y="-2.02232" width="95.7228" height="59.0857" filterUnits="userSpaceOnUse" color-interpolation-filters="sRGB">
<feFlood flood-opacity="0" result="BackgroundImageFix"/>
<feColorMatrix in="SourceAlpha" type="matrix" values="0 0 0 0 0 0 0 0 0 0 0 0 0 0 0 0 0 0 127 0" result="hardAlpha"/>
<feOffset dy="1.34821"/>
<feComposite in2="hardAlpha" operator="out"/>
<feColorMatrix type="matrix" values="0 0 0 0 0.117647 0 0 0 0 0.117647 0 0 0 0 0.117647 0 0 0 0.55 0"/>
<feBlend mode="normal" in2="BackgroundImageFix" result="effect1_dropShadow_1585_4384"/>
<feBlend mode="normal" in="SourceGraphic" in2="effect1_dropShadow_1585_4384" result="shape"/>
<feColorMatrix in="SourceAlpha" type="matrix" values="0 0 0 0 0 0 0 0 0 0 0 0 0 0 0 0 0 0 127 0" result="hardAlpha"/>
<feOffset dy="-1.34821"/>
<feGaussianBlur stdDeviation="0.337054"/>
<feComposite in2="hardAlpha" operator="arithmetic" k2="-1" k3="1"/>
<feColorMatrix type="matrix" values="0 0 0 0 0 0 0 0 0 0 0 0 0 0 0 0 0 0 0.25 0"/>
<feBlend mode="normal" in2="shape" result="effect2_innerShadow_1585_4384"/>
<feColorMatrix in="SourceAlpha" type="matrix" values="0 0 0 0 0 0 0 0 0 0 0 0 0 0 0 0 0 0 127 0" result="hardAlpha"/>
<feOffset dx="-31.0089"/>
<feGaussianBlur stdDeviation="2.35937"/>
<feComposite in2="hardAlpha" operator="arithmetic" k2="-1" k3="1"/>
<feColorMatrix type="matrix" values="0 0 0 0 0.764706 0 0 0 0 0.764706 0 0 0 0 0.764706 0 0 0 1 0"/>
<feBlend mode="normal" in2="effect2_innerShadow_1585_4384" result="effect3_innerShadow_1585_4384"/>
<feColorMatrix in="SourceAlpha" type="matrix" values="0 0 0 0 0 0 0 0 0 0 0 0 0 0 0 0 0 0 127 0" result="hardAlpha"/>
<feOffset dx="-12.1339"/>
<feGaussianBlur stdDeviation="3.37054"/>
<feComposite in2="hardAlpha" operator="arithmetic" k2="-1" k3="1"/>
<feColorMatrix type="matrix" values="0 0 0 0 0.764706 0 0 0 0 0.764706 0 0 0 0 0.764706 0 0 0 1 0"/>
<feBlend mode="normal" in2="effect3_innerShadow_1585_4384" result="effect4_innerShadow_1585_4384"/>
<feColorMatrix in="SourceAlpha" type="matrix" values="0 0 0 0 0 0 0 0 0 0 0 0 0 0 0 0 0 0 127 0" result="hardAlpha"/>
<feOffset dx="17.5268"/>
<feGaussianBlur stdDeviation="2.69643"/>
<feComposite in2="hardAlpha" operator="arithmetic" k2="-1" k3="1"/>
<feColorMatrix type="matrix" values="0 0 0 0 0.764706 0 0 0 0 0.764706 0 0 0 0 0.764706 0 0 0 1 0"/>
<feBlend mode="normal" in2="effect4_innerShadow_1585_4384" result="effect5_innerShadow_1585_4384"/>
<feColorMatrix in="SourceAlpha" type="matrix" values="0 0 0 0 0 0 0 0 0 0 0 0 0 0 0 0 0 0 127 0" result="hardAlpha"/>
<feOffset dx="4.04464"/>
<feGaussianBlur stdDeviation="1.34821"/>
<feComposite in2="hardAlpha" operator="arithmetic" k2="-1" k3="1"/>
<feColorMatrix type="matrix" values="0 0 0 0 0.764706 0 0 0 0 0.764706 0 0 0 0 0.764706 0 0 0 1 0"/>
<feBlend mode="normal" in2="effect5_innerShadow_1585_4384" result="effect6_innerShadow_1585_4384"/>
<feColorMatrix in="SourceAlpha" type="matrix" values="0 0 0 0 0 0 0 0 0 0 0 0 0 0 0 0 0 0 127 0" result="hardAlpha"/>
<feOffset dx="-4.04464"/>
<feGaussianBlur stdDeviation="1.34821"/>
<feComposite in2="hardAlpha" operator="arithmetic" k2="-1" k3="1"/>
<feColorMatrix type="matrix" values="0 0 0 0 0.764706 0 0 0 0 0.764706 0 0 0 0 0.764706 0 0 0 1 0"/>
<feBlend mode="normal" in2="effect6_innerShadow_1585_4384" result="effect7_innerShadow_1585_4384"/>
<feColorMatrix in="SourceAlpha" type="matrix" values="0 0 0 0 0 0 0 0 0 0 0 0 0 0 0 0 0 0 127 0" result="hardAlpha"/>
<feOffset dy="2.02232"/>
<feComposite in2="hardAlpha" operator="arithmetic" k2="-1" k3="1"/>
<feColorMatrix type="matrix" values="0 0 0 0 0.764706 0 0 0 0 0.764706 0 0 0 0 0.764706 0 0 0 1 0"/>
<feBlend mode="normal" in2="effect7_innerShadow_1585_4384" result="effect8_innerShadow_1585_4384"/>
<feColorMatrix in="SourceAlpha" type="matrix" values="0 0 0 0 0 0 0 0 0 0 0 0 0 0 0 0 0 0 127 0" result="hardAlpha"/>
<feOffset dy="-2.02232"/>
<feGaussianBlur stdDeviation="1.01116"/>
<feComposite in2="hardAlpha" operator="arithmetic" k2="-1" k3="1"/>
<feColorMatrix type="matrix" values="0 0 0 0 0.766667 0 0 0 0 0.766667 0 0 0 0 0.766667 0 0 0 1 0"/>
<feBlend mode="normal" in2="effect8_innerShadow_1585_4384" result="effect9_innerShadow_1585_4384"/>
</filter>
<filter id="filter2_f_1585_4384" x="42.6189" y="54.831" width="58.9869" height="55.1859" filterUnits="userSpaceOnUse" color-interpolation-filters="sRGB">
<feFlood flood-opacity="0" result="BackgroundImageFix"/>
<feBlend mode="normal" in="SourceGraphic" in2="BackgroundImageFix" result="shape"/>
<feGaussianBlur stdDeviation="7.41518" result="effect1_foregroundBlur_1585_4384"/>
</filter>
<filter id="filter3_f_1585_4384" x="30.7048" y="45.1219" width="46.7652" height="48.6518" filterUnits="userSpaceOnUse" color-interpolation-filters="sRGB">
<feFlood flood-opacity="0" result="BackgroundImageFix"/>
<feBlend mode="normal" in="SourceGraphic" in2="BackgroundImageFix" result="shape"/>
<feGaussianBlur stdDeviation="7.41518" result="effect1_foregroundBlur_1585_4384"/>
</filter>
<filter id="filter4_f_1585_4384" x="10.5788" y="71.1369" width="50.9224" height="49.5998" filterUnits="userSpaceOnUse" color-interpolation-filters="sRGB">
<feFlood flood-opacity="0" result="BackgroundImageFix"/>
<feBlend mode="normal" in="SourceGraphic" in2="BackgroundImageFix" result="shape"/>
<feGaussianBlur stdDeviation="7.41518" result="effect1_foregroundBlur_1585_4384"/>
</filter>
</defs>
</svg>
